<?xml version="1.0" encoding="utf-8"?>
<!-- Generator: Adobe Illustrator 27.5.0, SVG Export Plug-In . SVG Version: 6.00 Build 0)  -->
<svg version="1.1" xmlns="http://www.w3.org/2000/svg" xmlns:xlink="http://www.w3.org/1999/xlink" x="0px" y="0px"
	 viewBox="0 0 2200 2200" style="enable-background:new 0 0 2200 2200;" xml:space="preserve">
<g id="Objects">
	<g>
		<g>
			<path style="fill:#DBDBDB;" d="M641.395,1961.313c-2.178,0-4.204-0.268-6.202-0.779c-5.874-1.5-10.742-5.153-13.707-10.291
				c-2.388-4.134-6.752-15.123,4.241-27.833c2.506-2.897,5.912-6.126,10.72-10.163c7.964-6.687,19.653-15.464,35.737-26.835
				c28.718-20.304,70.734-48.358,128.449-85.765c107.178-69.466,249.754-159.067,400.701-253.93
				c118.764-74.636,240.658-151.24,346.431-218.812c-106.119,63.825-228.328,138.521-347.455,211.332
				c-170.12,103.978-346.031,211.495-480.328,290.651c-72.553,42.764-127.21,73.886-167.095,95.147
				c-67.943,36.219-80.371,37.187-90.511,34.608c-6.049-1.54-11.052-5.283-14.086-10.539c-2.983-5.166-6.438-15.825,3.929-29.168
				c3.092-3.979,7.62-8.565,13.842-14.02c10.595-9.287,26.272-21.293,47.93-36.704c38.569-27.445,94.856-64.785,172.078-114.152
				c142.697-91.225,334.298-209.002,519.59-322.901c92.504-56.862,182.093-111.932,264.242-162.836
				c-106.952,64.766-225.413,137.477-341.22,208.559C951.557,1585.6,768.402,1698.02,629.663,1780.021
				c-74.865,44.248-131.284,76.414-172.481,98.336c-69.693,37.086-83.054,38.051-93.283,35.457
				c-6.146-1.559-11.223-5.349-14.296-10.671c-2.436-4.22-6.871-15.496,4.55-29.019c2.989-3.539,7.313-7.668,13.22-12.625
				c10.115-8.489,25.036-19.584,45.615-33.92c36.816-25.647,90.67-60.899,164.638-107.77
				c137.224-86.954,326.421-202.839,509.389-314.908c182.603-111.845,371.422-227.498,515.309-318.431
				c29.654-18.741,56.484-35.849,80.678-51.447c-33.565,19.164-71.625,41.294-114.631,66.648
				c-162.513,95.811-365.978,220.218-562.743,340.528c-170.096,104.004-330.758,202.24-453.284,274.873
				c-65.806,39.009-115.045,67.334-150.53,86.591c-61.041,33.126-71.229,34.047-80.758,31.621
				c-5.842-1.487-10.686-5.124-13.641-10.241c-2.984-5.169-6.458-15.847,3.81-29.284c3.142-4.112,7.761-8.83,14.121-14.423
				c10.823-9.517,26.869-21.784,49.056-37.499c39.548-28.013,97.392-66.104,176.839-116.451
				c146.993-93.153,346.338-214.46,539.12-331.775c142.738-86.86,289.502-176.17,411.534-251.985
				c-122.745,73.728-268.003,162.908-409.275,249.641c-177.069,108.71-360.167,221.123-499.184,303.276
				c-75.037,44.344-131.61,76.582-172.949,98.556c-69.931,37.173-83.363,38.131-93.658,35.522
				c-6.162-1.563-11.252-5.361-14.332-10.694c-2.376-4.116-6.75-15.119,3.927-28.371c2.815-3.493,6.708-7.352,12.253-12.142
				c9.22-7.966,22.822-18.315,41.582-31.637c33.439-23.746,82.334-56.262,149.481-99.405
				c90.413-58.093,205.125-129.749,324.322-203.775c-92.286,56.173-180.298,109.281-256.43,154.111
				c-74.264,43.731-130.409,75.586-171.641,97.388c-70.076,37.052-83.579,37.979-93.952,35.346
				c-6.18-1.57-11.282-5.378-14.368-10.723c-2.324-4.024-6.634-14.78,3.49-27.709c2.588-3.306,6.15-6.929,11.209-11.402
				c8.292-7.333,20.509-16.834,37.345-29.042c29.906-21.686,73.592-51.327,133.554-90.618
				c110.94-72.694,261.867-168.025,407.825-260.218c57.514-36.329,115.87-73.189,171.977-108.792
				c-61.094,37.062-124.657,75.84-187.243,114.022c-136.522,83.288-265.474,161.957-366.157,221.394
				c-54.272,32.04-95.013,55.342-124.551,71.241c-50.271,27.058-60.35,28.856-70.059,26.377
				c-5.796-1.478-10.605-5.093-13.542-10.179c-2.254-3.906-6.488-14.357,2.881-27.025c2.398-3.243,5.694-6.757,10.371-11.059
				c7.53-6.925,18.616-15.839,33.891-27.25c26.98-20.156,66.32-47.565,120.266-83.795
				c81.729-54.887,186.181-122.728,292.273-191.319c-94.444,58.155-187.424,115.117-262.039,159.256
				c-50.029,29.594-87.868,51.116-115.679,65.796c-49.113,25.924-59.202,26.343-68.09,24.095c-6.002-1.516-10.971-5.231-13.99-10.46
				c-2.142-3.71-6.23-13.626,2.046-25.55c1.973-2.844,4.643-5.852,8.401-9.468c5.774-5.555,14.244-12.642,25.895-21.664
				c20.42-15.814,50.289-37.325,91.313-65.761c75.769-52.52,179.116-121.334,279.058-187.883
				c18.939-12.611,38.016-25.314,56.99-37.963c-18.393,11.201-36.847,22.449-55.181,33.624
				c-91.576,55.82-186.27,113.539-257.22,155.387c-38.314,22.598-67.1,39.05-88.003,50.294
				c-35.446,19.066-44.517,21.497-53.775,19.138c-5.671-1.448-10.385-5-13.274-10.003c-1.675-2.901-6.457-13.283,2.322-25.074
				c1.648-2.212,3.81-4.58,6.805-7.452c4.535-4.347,11.125-9.974,20.145-17.204c15.783-12.648,38.796-30.029,70.352-53.135
				c58.292-42.681,137.913-99.12,214.912-153.702c10.378-7.356,20.804-14.747,31.223-22.136c-1.46,0.895-2.918,1.79-4.376,2.684
				c-72.687,44.583-147.849,90.683-205.01,124.445c-30.966,18.29-54.343,31.609-71.467,40.717
				c-29.797,15.852-38.224,17.878-47.026,15.645c-5.702-1.447-10.439-5.011-13.341-10.037c-1.544-2.675-6.024-12.261,1.157-23.318
				c1.29-1.987,2.949-4.037,5.219-6.45c3.146-3.344,7.675-7.592,13.847-12.989c10.583-9.253,26.052-21.936,47.29-38.772
				c39.182-31.06,91.125-70.827,146.118-112.929c10.54-8.069,21.149-16.191,31.721-24.294
				c-49.933,30.617-100.261,61.396-140.03,84.848c-23.888,14.086-41.973,24.361-55.291,31.411
				c-22.868,12.107-31.057,14.661-39.826,12.437c-5.647-1.433-10.344-4.97-13.225-9.959c-3.369-5.836-5.439-15.206,3.833-26.701
				c1.941-2.406,4.689-5.44,8.402-9.276c6.202-6.407,15.253-15.218,27.67-26.938c22.833-21.551,53.325-49.432,85.607-78.949
				c7.263-6.641,15.047-13.758,23.082-21.118c-25.682,15.695-50.781,30.939-71.588,43.187
				c-48.772,28.712-56.029,31.043-65.89,28.538c-5.549-1.411-10.171-4.899-13.013-9.822c-6.005-10.4-1.057-19.71,2.918-27.19
				c2.272-4.276,5.579-10.171,10.108-18.024c8.254-14.309,19.529-33.299,30.433-51.664c1.662-2.8,3.386-5.703,5.147-8.672
				c-8.151,4.642-13.374,6.679-20.779,4.792c-5.34-1.362-9.953-4.853-12.709-9.625c-5.648-9.783-2.296-22.293,7.487-27.941
				c1.253-0.723,2.551-1.299,3.873-1.733c4.686-2.52,18.21-10.77,28.309-16.931c9.004-5.494,18.315-11.174,25.607-15.463
				c12.826-7.544,19.264-11.332,28.389-9.003c5.34,1.362,9.98,4.872,12.735,9.646c5.997,10.385,1.078,19.631-2.874,27.059
				c-2.236,4.204-5.492,10.005-9.953,17.735c-8.131,14.091-19.278,32.865-30.057,51.021c-2.869,4.833-5.925,9.979-9.027,15.215
				c27.365-16.312,59.675-36.095,85.379-51.834c30.09-18.425,58.512-35.827,80.426-48.813c11.919-7.063,20.897-12.217,27.45-15.755
				c10.844-5.857,17.931-9.336,26.646-7.121c5.402,1.373,10.092,4.918,12.867,9.724c4.909,8.503,3.563,17.748-4,27.48
				c-2.316,2.98-5.63,6.727-10.132,11.455c-7.545,7.923-18.512,18.7-33.53,32.945c-27.474,26.062-64.191,59.635-99.7,92.103
				c-3.413,3.121-6.884,6.294-10.391,9.502c31.68-19.189,66.147-40.329,99.859-61.005c51.85-31.801,100.825-61.839,139.028-84.458
				c20.696-12.254,36.29-21.177,47.672-27.281c19.13-10.258,26.994-13.293,35.862-11.041c5.576,1.415,10.219,4.916,13.072,9.857
				c1.955,3.385,5.773,12.431-0.947,23.311c-1.38,2.234-3.189,4.544-5.691,7.271c-3.535,3.851-8.653,8.729-15.647,14.911
				c-11.995,10.604-29.478,25.028-53.45,44.097c-44.07,35.056-103.496,80.551-160.965,124.549
				c-7.531,5.765-14.997,11.481-22.379,17.136c32.313-19.694,66.095-40.415,99.335-60.802
				c71.65-43.947,145.74-89.39,201.796-122.518c30.35-17.936,53.245-30.994,69.995-39.92c29.253-15.59,37.551-17.582,46.252-15.373
				c5.688,1.443,10.415,5.001,13.311,10.017c1.676,2.902,6.46,13.287-2.329,25.069c-1.642,2.201-3.795,4.556-6.777,7.412
				c-4.511,4.321-11.066,9.915-20.038,17.102c-15.698,12.576-38.59,29.862-69.984,52.845c-58,42.463-137.321,98.689-214.028,153.063
				c-18.471,13.093-37.108,26.303-55.561,39.403c35.491-21.547,72.176-43.908,108.346-65.955
				C795.103,1005.636,894.856,944.833,971,900.004c41.209-24.261,72.246-41.939,94.885-54.044
				c37.704-20.16,47.802-22.884,57.334-20.451c5.725,1.461,10.479,5.04,13.388,10.078c2.145,3.717,6.235,13.638-2.101,25.487
				c-1.933,2.748-4.536,5.654-8.19,9.146c-5.594,5.345-13.79,12.173-25.058,20.872c-19.756,15.252-48.677,36.043-88.414,63.56
				c-73.465,50.872-174.422,118.095-272.054,183.106c-50.248,33.458-101.413,67.528-149.443,99.772
				c70.957-43.088,149.469-91.49,226.199-138.793c111.422-68.692,226.638-139.722,313.449-191.175
				c46.878-27.785,82.25-47.977,108.14-61.728c42.447-22.546,54.056-25.226,64.029-22.707c5.919,1.495,10.824,5.167,13.81,10.34
				c1.768,3.061,6.766,14.019-3.123,26.489c-2.105,2.656-4.932,5.532-8.898,9.052c-6.283,5.579-15.488,12.813-28.142,22.116
				c-22.408,16.475-55.237,39.142-100.365,69.296c-83.727,55.947-195.428,128.094-313.688,204.477
				c-70.41,45.477-142.213,91.854-209.055,135.446c65.884-39.883,137.207-83.394,210.819-128.303
				c140.928-85.976,286.655-174.878,398.4-240.663c60.434-35.578,105.967-61.491,139.199-79.22
				c57.815-30.844,68.297-31.582,77.697-29.187c5.912,1.508,10.809,5.181,13.789,10.345c2.324,4.024,6.631,14.763-3.541,27.526
				c-2.499,3.136-5.92,6.575-10.764,10.821c-7.915,6.937-19.56,15.941-35.603,27.527c-28.516,20.595-70.225,48.83-127.509,86.318
				c-106.138,69.458-252.098,161.654-393.252,250.812c-128.508,81.172-261.1,164.922-366.335,233.182
				c7.356-4.321,14.905-8.767,22.641-13.337c134.898-79.671,304.977-183.851,469.456-284.601
				c150.586-92.24,292.82-179.365,402.357-244.274c58.922-34.916,103.111-60.276,135.092-77.529
				c55.666-30.031,65.327-30.762,74.628-28.402c5.855,1.487,10.709,5.13,13.668,10.256c2.377,4.117,6.753,15.127-3.915,28.43
				c-2.841,3.542-6.776,7.453-12.383,12.309c-9.332,8.081-23.103,18.574-42.099,32.078
				c-33.851,24.064-83.332,56.988-151.272,100.656c-125.823,80.871-297.693,187.388-463.904,290.399
				c-134.245,83.199-272.442,168.847-385.975,240.742c132.354-78.923,296.852-179.916,456.318-277.818
				c175.642-107.835,357.265-219.342,494.762-300.623c74.19-43.857,130.101-75.737,170.927-97.462
				c69.112-36.775,82.395-37.724,92.578-35.142c6.143,1.558,11.217,5.345,14.29,10.666c2.391,4.144,6.801,15.245-3.896,28.799
				c-2.957,3.747-7.262,8.049-13.163,13.153c-9.989,8.642-24.772,19.821-45.193,34.177c-36.454,25.629-89.887,60.664-163.354,107.11
				c-60.123,38.011-130.377,81.558-205.739,127.863c52.089-31.29,101.811-60.915,148.049-88.105
				c89.347-52.541,156.903-90.843,206.53-117.094c83.122-43.969,99.085-45.203,110.191-42.378
				c6.305,1.605,11.503,5.477,14.635,10.905c3.035,5.257,6.486,16.071-4.51,29.435c-3.167,3.849-7.784,8.336-14.113,13.719
				c-10.881,9.253-26.954,21.309-49.137,36.857c-39.63,27.774-97.481,65.774-176.86,116.17
				c-146.933,93.284-346.162,215.313-538.831,333.325c-125.333,76.766-253.736,155.414-366.076,225.156
				c112.851-68.171,240.456-146.494,364.975-222.924c177.868-109.175,361.791-222.066,501.322-304.521
				c75.307-44.501,132.07-76.854,173.534-98.906c70.122-37.293,83.563-38.262,93.845-35.654c6.156,1.561,11.241,5.356,14.318,10.686
				c2.389,4.137,6.773,15.178-4.071,28.318c-2.775,3.362-6.597,7.079-12.031,11.698c-9.037,7.682-22.363,17.684-40.739,30.578
				c-32.823,23.032-80.93,54.691-147.072,96.789c-122.823,78.172-286.266,178.64-459.306,285.007
				c-175.302,107.758-356.572,219.184-496.137,307.953c-6.896,4.386-13.637,8.683-20.222,12.89c0.438-0.258,0.869-0.513,1.307-0.772
				c132.173-78.132,302.361-182.152,466.947-282.748c162.018-99.026,329.551-201.424,455.232-275.636
				c67.755-40.008,118.676-69.101,155.676-88.939c63.463-34.027,74.662-34.93,84.504-32.426c5.953,1.515,10.882,5.209,13.879,10.401
				c2.388,4.135,6.765,15.194-4.13,28.522c-2.813,3.441-6.874,7.441-12.414,12.228c-9.396,8.118-23.233,18.703-42.302,32.36
				c-33.943,24.31-83.375,57.559-151.119,101.646c-120.667,78.529-280.94,179.349-437.685,277.858
				c1.608-0.98,3.225-1.965,4.831-2.945c145.978-88.979,296.924-180.988,411.001-248.21
				c61.575-36.285,107.865-62.695,141.511-80.738c18.801-10.081,33.297-17.366,44.321-22.27c17.161-7.634,25.677-9.516,33.753-7.454
				c5.872,1.499,10.738,5.153,13.703,10.288c2.308,3.996,6.589,14.648-3.455,27.224c-2.375,2.975-5.609,6.235-10.175,10.26
				c-7.413,6.535-18.302,15.028-33.29,25.963c-26.599,19.409-65.46,46.03-118.802,81.386
				c-98.767,65.462-234.025,152.064-364.829,235.814c-55.379,35.458-111.59,71.448-165.543,106.161
				c58.187-35.159,118.768-71.969,178.4-108.202c123.327-74.935,239.814-145.715,330.037-198.92
				c48.599-28.66,84.994-49.51,111.263-63.747c14.688-7.96,25.976-13.728,34.509-17.634c12.733-5.829,20.706-8.404,28.95-6.294
				c5.681,1.455,10.403,5.013,13.294,10.022c2.233,3.868,6.436,14.22-2.753,26.787c-2.32,3.173-5.499,6.61-10.008,10.82
				c-7.228,6.75-17.856,15.439-32.488,26.565c-25.778,19.601-63.268,46.211-114.612,81.353
				c-75.74,51.838-170.771,114.795-267.524,178.57c91.621-55.519,183.126-110.825,254.353-152.697
				c43.914-25.815,76.869-44.628,100.749-57.515c13.411-7.236,23.735-12.487,31.562-16.049c11.745-5.346,19.628-7.851,27.622-5.801
				c5.655,1.451,10.356,4.998,13.238,9.988c2.146,3.717,6.228,13.639-2.209,25.447c-1.875,2.625-4.388,5.428-7.908,8.819
				c-5.415,5.219-13.329,11.923-24.197,20.501c-19.032,15.021-46.774,35.508-84.811,62.63
				c-70.143,50.014-164.573,114.905-255.893,177.66c-3.39,2.329-6.767,4.65-10.142,6.969c5.082-3.074,10.16-6.147,15.226-9.212
				c82.109-49.681,167.015-101.051,230.677-138.468c34.393-20.214,60.172-34.95,78.812-45.05
				c31.063-16.83,39.801-19.944,49.19-17.53c5.567,1.431,10.201,4.934,13.048,9.866c1.592,2.756,6.186,12.636-1.527,24.022
				c-1.461,2.158-3.366,4.409-5.991,7.083c-3.779,3.849-9.252,8.763-16.73,15.021c-12.939,10.827-31.847,25.652-57.803,45.32
				c-47.914,36.308-113.967,84.616-177.844,131.334c-9.712,7.103-19.476,14.243-29.227,21.38
				c59.549-36.17,119.487-72.492,166.823-100.297c28.54-16.764,50.053-29.002,65.77-37.416
				c26.776-14.332,35.026-17.086,44.133-14.76c5.596,1.432,10.251,4.948,13.111,9.9c5.234,9.068,3.399,18.888-5.453,29.189
				c-2.941,3.424-7.178,7.755-12.951,13.242c-9.816,9.33-24.09,22.023-43.64,38.807c-35.793,30.728-83.615,70.293-129.891,108.578
				c1.354-0.825,2.706-1.648,4.043-2.463c38.967-23.73,75.771-46.145,104.144-62.908c15.376-9.084,26.922-15.709,35.3-20.251
				c13.524-7.334,21.001-11.051,30.045-8.742c5.401,1.38,10.089,4.927,12.863,9.732c7.527,13.038-1.374,24.502-7.874,32.873
				c-4.386,5.648-10.774,13.346-19.531,23.535c-15.969,18.581-37.821,43.111-58.954,66.834c-2.712,3.044-5.507,6.181-8.359,9.385
				c12.973-7.927,24.987-15.226,34.908-21.1c22.574-13.364,29.386-17.398,39.227-14.896c5.369,1.366,10.032,4.893,12.795,9.679
				c5.647,9.784,2.294,22.293-7.49,27.941c-1.818,1.049-3.732,1.787-5.677,2.232c-9.063,4.503-40.89,23.982-66.76,39.815
				c-20.26,12.399-41.209,25.22-57.57,34.854c-28.831,16.977-35.317,20.095-44.953,17.643c-5.401-1.373-10.09-4.917-12.865-9.724
				c-7.526-13.035,1.368-24.485,7.861-32.846c4.377-5.635,10.751-13.315,19.487-23.48c15.934-18.541,37.751-43.031,58.85-66.714
				c3.603-4.045,7.354-8.256,11.186-12.562c-18.404,11.138-37.518,22.778-55.356,33.641c-43.594,26.548-88.672,54-123.787,74.635
				c-19.144,11.249-33.622,19.473-44.259,25.141c-18.315,9.759-25.876,12.635-34.558,10.414c-5.545-1.416-10.162-4.905-13.002-9.823
				c-3.582-6.203-5.591-16.129,5.165-28.198c2.46-2.76,5.97-6.266,10.732-10.719c8.083-7.56,19.888-17.962,36.091-31.803
				c29.875-25.518,69.756-58.512,111.98-93.445c17.047-14.103,34.331-28.402,51.138-42.363
				c-38.387,23.067-80.249,48.501-121.194,73.377c-61.21,37.188-119.025,72.314-163.806,98.724
				c-24.195,14.269-42.336,24.664-55.462,31.778c-22.08,11.972-29.869,15.102-38.906,12.786c-5.527-1.415-10.13-4.895-12.962-9.802
				c-2.027-3.511-5.949-12.885,1.417-24.05c1.52-2.304,3.519-4.709,6.292-7.571c4.027-4.157,9.876-9.453,17.88-16.189
				c13.844-11.653,34.041-27.541,61.746-48.574c51.044-38.75,120.338-89.429,187.35-138.439
				c9.854-7.207,19.759-14.451,29.647-21.687c-31.517,19.003-64.058,38.691-96.15,58.109
				c-84.646,51.213-172.171,104.17-238.51,143.123c-35.885,21.071-62.82,36.44-82.343,46.986
				c-34.133,18.437-41.919,20.543-50.966,18.222c-5.587-1.436-10.236-4.95-13.091-9.895c-1.689-2.926-6.507-13.391,2.406-25.256
				c1.716-2.285,3.974-4.72,7.108-7.664c4.749-4.462,11.664-10.226,21.138-17.619c16.613-12.964,40.911-30.792,74.284-54.503
				c61.788-43.901,143.76-100.231,230.543-159.868c36.712-25.228,73.959-50.824,109.918-75.652
				c-50.574,30.464-104.166,62.95-156.801,94.856c-103.716,62.87-210.964,127.879-291.802,175.408
				c-43.665,25.673-76.428,44.38-100.16,57.193c-42.075,22.715-49.913,24.038-58.886,21.734c-5.651-1.449-10.35-4.995-13.229-9.983
				c-1.763-3.054-6.75-13.961,3.145-26.059c1.866-2.283,4.33-4.753,7.754-7.774c5.34-4.713,13.13-10.853,23.812-18.772
				c18.896-14.007,46.6-33.389,84.696-59.254c70.785-48.061,166.426-111.026,267.683-177.688
				c66.234-43.605,133.785-88.077,196.879-130.026c-54.166,32.73-112.137,67.954-171.773,104.189
				c-132.122,80.28-268.744,163.292-374.038,225.147c-56.994,33.481-99.9,57.894-131.171,74.634
				c-54.998,29.441-64.527,30.139-73.68,27.799c-5.817-1.489-10.641-5.116-13.584-10.215c-2.307-3.995-6.589-14.649,3.44-27.267
				c2.399-3.018,5.668-6.325,10.289-10.408c7.51-6.635,18.545-15.254,33.733-26.349c26.952-19.687,66.313-46.669,120.335-82.486
				c99.984-66.291,236.499-153.698,368.519-238.227c56.775-36.351,114.435-73.269,169.554-108.743
				c-76.742,46.385-159.126,96.603-239.941,145.862c-146.161,89.092-297.298,181.217-411.57,248.551
				c-61.684,36.348-108.058,62.802-141.771,80.878c-18.837,10.101-33.362,17.398-44.409,22.31
				C656.054,1958.824,648.023,1961.313,641.395,1961.313z M1844.051,1857.347c1.116,1.906,2.449,3.506,3.919,4.829
				C1846.462,1860.811,1845.134,1859.195,1844.051,1857.347z M1844.03,1857.311c0.007,0.011,0.014,0.023,0.021,0.035
				C1844.043,1857.334,1844.037,1857.322,1844.03,1857.311z M1844.007,1857.272c0.005,0.008,0.01,0.017,0.015,0.024
				C1844.017,1857.288,1844.012,1857.28,1844.007,1857.272z M349.815,869.223c3.221,1.732,6.018,4.348,7.987,7.743
				C355.713,873.365,352.89,870.85,349.815,869.223z"/>
		</g>
		<g>
			<path style="fill:#c96442" d="M639.492,920.049c-2.245,0-4.226-0.296-6.159-0.783c-5.929-1.496-10.843-5.173-13.835-10.354
				c-2.165-3.75-6.264-13.737,2.401-25.461c1.819-2.461,4.237-5.098,7.611-8.298c5.185-4.92,12.749-11.27,23.124-19.414
				c18.192-14.28,44.718-33.831,81.095-59.77c67.164-47.893,158.332-110.688,246.499-171.414
				c27.905-19.22,56.152-38.677,83.731-57.725c-61.341,37.1-127.572,77.613-192.436,117.289
				C771.282,745.435,676.6,803.351,603.218,846.77c-39.56,23.407-69.263,40.427-90.806,52.031
				c-36.275,19.539-45.543,22.043-54.972,19.644c-5.7-1.45-10.436-5.015-13.336-10.038c-2.197-3.805-6.332-13.932,2.701-25.746
				c1.853-2.423,4.315-5.049,7.752-8.264c5.358-5.015,13.17-11.53,23.881-19.916c18.824-14.74,46.216-34.956,83.739-61.804
				c69.239-49.54,162.431-114.074,252.555-176.482c14.15-9.799,28.168-19.506,41.977-29.074
				c-38.239,23.219-77.622,47.234-116.461,70.916c-94.868,57.847-192.966,117.664-266.486,161.034
				c-39.698,23.418-69.527,40.464-91.191,52.112c-36.526,19.638-45.825,22.159-55.237,19.758
				c-5.687-1.451-10.412-5.011-13.307-10.025c-1.696-2.938-6.527-13.439,2.529-25.2c1.628-2.114,3.753-4.38,6.689-7.133
				c4.447-4.171,10.903-9.585,19.737-16.553c15.488-12.217,38.107-29.065,69.148-51.509
				c57.454-41.541,133.455-94.819,213.918-151.225c29.571-20.73,59.53-41.731,88.715-62.26
				c-30.029,18.284-60.713,37.043-91.004,55.562c-72.618,44.397-141.209,86.331-193.847,117.509
				c-28.383,16.812-49.67,29.039-65.076,37.379c-26.176,14.17-34.26,16.903-43.252,14.614c-5.591-1.423-10.245-4.933-13.103-9.884
				c-1.972-3.416-5.82-12.553,1.033-23.586c1.463-2.355,3.396-4.799,6.083-7.693c3.855-4.15,9.452-9.409,17.11-16.076
				c13.178-11.471,32.38-27.048,58.705-47.621c48.384-37.814,113.258-86.561,175.996-133.704c3.179-2.389,6.344-4.766,9.5-7.138
				c-10.534,6.422-21.084,12.859-31.568,19.256c-52.361,31.949-101.819,62.127-139.681,84.539
				c-20.45,12.105-35.785,20.917-46.879,26.941c-19.419,10.543-26.383,13.27-35.111,11.045c-5.519-1.407-10.116-4.881-12.946-9.783
				c-1.812-3.138-5.422-11.54,0.175-21.759c1.057-1.93,2.418-3.899,4.283-6.199c2.468-3.042,6.002-6.869,10.806-11.702
				c8.083-8.132,19.848-19.206,35.968-33.853c29.543-26.846,69.384-61.746,107.913-95.497c0.959-0.84,1.921-1.683,2.892-2.534
				c-30.645,18.522-61.228,36.962-85.015,50.934c-14.795,8.69-25.914,15.041-33.994,19.418
				c-13.264,7.184-20.602,10.825-29.512,8.534c-5.372-1.382-10.038-4.918-12.8-9.703c-6.607-11.441-0.227-21.415,4.431-28.697
				c2.758-4.311,6.777-10.246,12.285-18.143c10.052-14.41,23.459-33.06,37.653-52.806c3.51-4.883,7.216-10.038,10.991-15.298
				c-13.726,8.098-20.347,11.72-29.388,9.429c-5.366-1.361-10.028-4.885-12.79-9.668c-5.648-9.783-2.296-22.293,7.487-27.941
				c1.662-0.959,3.402-1.659,5.174-2.112c6.678-3.448,27.112-15.992,40.982-24.507c10.812-6.637,21.992-13.501,30.522-18.544
				c14.568-8.614,21.216-12.548,30.56-10.177c5.363,1.36,10.022,4.882,12.783,9.664c6.7,11.605,0.141,22.009-5.13,30.37
				c-3.295,5.226-8.085,12.358-14.642,21.801c-11.918,17.161-27.888,39.377-43.334,60.862c-1.338,1.861-2.696,3.751-4.068,5.66
				c22.947-13.711,48.026-28.874,69.878-42.087c35.202-21.284,71.602-43.292,99.113-59.447
				c14.958-8.784,26.204-15.205,34.381-19.631c13.371-7.236,20.762-10.902,29.702-8.608c5.375,1.382,10.041,4.92,12.804,9.707
				c3.45,5.973,5.498,15.581-4.333,27.417c-2.209,2.659-5.353,6.013-9.612,10.254c-7.155,7.123-17.594,16.89-31.913,29.861
				c-26.331,23.85-61.219,54.41-98.153,86.764c-8.574,7.511-17.604,15.421-26.807,23.497c18.224-11.082,36.573-22.279,54.017-32.922
				c61.065-37.26,124.21-75.789,173.796-104.933c26.995-15.866,47.422-27.455,62.448-35.43c25.531-13.55,33.987-16.294,43.08-13.975
				c5.638,1.438,10.328,4.973,13.204,9.955c1.565,2.711,6.096,12.422-1.325,23.563c-1.331,1.998-3.042,4.064-5.385,6.501
				c-3.276,3.408-7.998,7.748-14.437,13.267c-11.075,9.495-27.278,22.525-49.534,39.834
				c-41.107,31.972-95.894,73.14-153.897,116.725c-18.45,13.864-37.107,27.883-55.468,41.717
				c21.329-13.01,43.413-26.512,65.905-40.263c83.6-51.11,170.047-103.961,237.796-143.815
				c36.811-21.655,64.662-37.455,85.142-48.301c34.71-18.383,44.235-20.799,53.675-18.4c5.757,1.466,10.537,5.06,13.459,10.122
				c1.683,2.914,6.485,13.355-2.377,25.33c-1.759,2.377-4.088,4.928-7.331,8.03c-4.973,4.757-12.216,10.91-22.143,18.81
				c-17.386,13.836-42.7,32.788-77.388,57.938c-63.986,46.394-150.275,106.884-233.723,165.382
				c-9.518,6.673-18.973,13.301-28.335,19.866c32.213-19.583,65.187-39.689,97.757-59.549
				c99.851-60.885,203.102-123.844,281.914-170.25c42.647-25.112,74.769-43.407,98.201-55.932
				c41.226-22.036,49.947-23.372,58.87-21.096c5.742,1.465,10.509,5.053,13.424,10.102c1.729,2.994,6.63,13.684-2.854,25.567
				c-1.693,2.121-3.91,4.417-6.976,7.226c-4.723,4.327-11.586,9.972-20.981,17.257c-16.535,12.824-40.679,30.547-73.812,54.182
				c-61.373,43.779-142.657,100.068-228.715,159.661c-27.747,19.214-55.801,38.641-83.361,57.772
				c30.87-18.833,62.882-38.414,95.516-58.376c108.808-66.557,221.319-135.379,308.525-186.731
				c47.265-27.832,82.969-48.114,109.152-62.004c43.377-23.012,54.563-25.664,64.581-23.115c5.857,1.49,10.712,5.134,13.673,10.263
				c1.696,2.938,6.528,13.449-2.486,25.375c-1.745,2.308-4.046,4.779-7.242,7.777c-4.88,4.579-11.987,10.502-21.725,18.107
				c-17.086,13.345-42.041,31.685-76.289,56.067c-63.351,45.103-150.578,105.182-234.933,163.283
				c-34.738,23.927-69.983,48.203-104.019,71.746c52.509-32.1,108.516-66.672,163.482-100.6
				c101.663-62.752,206.788-127.641,286.598-174.931c43.157-25.571,75.776-44.16,99.723-56.828
				c39.695-20.999,50.741-23.446,60.485-20.986c5.917,1.493,10.821,5.163,13.807,10.335c1.675,2.901,6.464,13.298-2.239,25.282
				c-1.79,2.465-4.17,5.091-7.486,8.262c-5.055,4.834-12.428,11.053-22.543,19.013c-17.712,13.94-43.57,33.014-79.052,58.312
				c-65.542,46.731-155.02,108.299-241.552,167.839c-29.246,20.123-58.858,40.498-87.726,60.425
				c56.597-34.279,117.245-71.364,176.7-107.719c103.116-63.054,200.514-122.61,276.68-167.619
				c41.105-24.29,72.006-41.96,94.468-54.017c37.33-20.041,47.349-22.749,56.844-20.331c5.728,1.458,10.484,5.037,13.395,10.078
				c1.707,2.956,6.563,13.525-2.621,25.383c-1.693,2.186-3.913,4.534-6.987,7.388c-4.691,4.356-11.51,10.012-20.848,17.289
				c-16.4,12.782-40.362,30.403-73.256,53.873c-60.908,43.459-141.598,99.252-227.025,158.321
				c-31.49,21.774-63.387,43.829-94.479,65.402c34.801-21.34,70.628-43.404,105.981-65.175
				c98.516-60.67,200.388-123.406,278.497-169.586c42.294-25.005,74.284-43.199,97.796-55.62
				c39.144-20.68,50.042-23.081,59.673-20.648c5.893,1.49,10.779,5.15,13.756,10.307c1.624,2.814,6.301,12.905-1.74,24.609
				c-1.661,2.417-3.856,4.947-6.911,7.961c-4.511,4.453-11.083,10.129-20.091,17.353c-15.68,12.576-38.63,29.755-70.163,52.518
				c-58.274,42.07-138.797,98.05-216.668,152.187c-24.592,17.098-49.457,34.384-73.899,51.424
				c22.47-13.757,45.216-27.713,67.737-41.531c81.497-50.005,165.769-101.712,229.61-139.44
				c34.546-20.416,60.607-35.276,79.673-45.427c32.535-17.323,41.573-19.583,50.729-17.259c5.735,1.455,10.498,5.036,13.413,10.084
				c1.602,2.773,6.214,12.701-1.636,24.037c-1.417,2.045-3.248,4.183-5.763,6.728c-3.611,3.653-8.831,8.332-15.957,14.305
				c-12.334,10.338-30.361,24.536-55.109,43.404c-45.724,34.86-106.295,79.512-170.421,126.785
				c-18.447,13.599-37.082,27.335-55.465,40.917c12.857-7.802,25.765-15.643,38.58-23.429c61.449-37.33,119.49-72.589,164.617-99.19
				c24.395-14.38,42.696-24.857,55.949-32.033c22.251-12.046,30.094-15.197,39.174-12.873c5.531,1.416,10.137,4.899,12.971,9.807
				c1.529,2.648,5.966,12.133-1.124,23.012c-1.12,1.719-2.538,3.514-4.463,5.648c-2.655,2.945-6.458,6.727-11.624,11.564
				c-8.84,8.276-21.703,19.669-39.323,34.831c-32.442,27.915-76.767,64.925-119.632,100.717c-4.378,3.655-8.86,7.398-13.419,11.206
				c36.393-22.142,72.836-44.256,101.322-61.025c17.506-10.306,30.706-17.831,40.353-23.006
				c16.146-8.661,23.614-11.963,32.555-9.675c5.513,1.409,10.106,4.882,12.934,9.779c3.05,5.285,5.136,13.837-2.239,24.583
				c-1.336,1.947-3.212,4.422-5.735,7.567c-4.177,5.206-10.25,12.407-18.566,22.013c-15.256,17.622-35.465,40.351-56.859,64.415
				c-4.397,4.944-9,10.121-13.697,15.41c15.542-9.525,30.644-18.725,42.967-26.005c29.151-17.222,35.708-20.384,45.409-17.925
				c5.412,1.372,10.11,4.92,12.89,9.735c5.648,9.783,2.296,22.293-7.488,27.941c-2.2,1.27-4.539,2.085-6.907,2.474
				c-11.27,5.352-51.916,30.313-82.042,48.815c-20.471,12.572-41.639,25.572-57.686,35.064
				c-28.196,16.678-34.552,19.737-44.115,17.312c-5.403-1.369-10.095-4.912-12.872-9.721c-4.429-7.671-3.653-16.058,2.306-24.929
				c1.504-2.239,3.632-5.084,6.503-8.697c4.768-5.998,11.682-14.238,21.137-25.19c17.286-20.024,40.537-46.175,63.022-71.464
				c2.521-2.835,5.088-5.722,7.684-8.643c-24.64,14.834-50.749,30.725-73.809,44.76c-39.987,24.338-81.335,49.503-112.493,67.86
				c-16.927,9.972-29.675,17.251-38.974,22.253c-15.727,8.46-23.012,11.679-31.859,9.418c-5.503-1.407-10.089-4.874-12.913-9.765
				c-1.529-2.648-5.965-12.132,1.121-23.012c1.121-1.721,2.541-3.518,4.468-5.655c2.66-2.949,6.467-6.738,11.641-11.582
				c8.853-8.289,21.734-19.699,39.378-34.882c32.485-27.953,76.855-65.001,119.763-100.829c6.919-5.777,14.102-11.775,21.432-17.9
				c-23.723,14.352-47.764,28.956-70.517,42.779c-64.651,39.274-131.501,79.885-182.887,110.078
				c-27.887,16.385-48.897,28.344-64.232,36.562c-26.249,14.065-34.355,16.769-43.372,14.458c-5.586-1.43-10.235-4.942-13.091-9.888
				c-2.029-3.515-5.951-12.899,1.444-24.083c1.521-2.3,3.522-4.71,6.299-7.584c4.052-4.194,9.934-9.547,17.985-16.364
				c13.931-11.796,34.232-27.878,62.063-49.165c51.239-39.191,120.339-90.13,187.164-139.393
				c10.035-7.397,19.976-14.726,29.78-21.957c-35.386,21.583-72.309,44.238-108.652,66.537
				c-82.081,50.362-166.956,102.439-231.418,140.525c-34.894,20.615-61.226,35.622-80.502,45.876
				c-32.841,17.47-41.959,19.748-51.165,17.412c-5.743-1.457-10.513-5.042-13.431-10.095c-2.071-3.587-6.058-13.171,1.596-24.7
				c1.744-2.627,4.079-5.38,7.351-8.664c4.883-4.903,12.019-11.134,21.815-19.052c17.045-13.775,41.943-32.495,76.121-57.228
				c63.008-45.597,148.436-104.988,231.051-162.424c22.43-15.594,45.101-31.356,67.388-46.887
				c-50.417,30.755-104.078,63.801-156.734,96.228c-93.576,57.627-190.337,117.217-263.159,160.363
				c-39.347,23.313-69.031,40.262-90.748,51.814c-36.741,19.544-46.573,21.709-55.9,19.352c-5.819-1.471-10.647-5.093-13.594-10.197
				c-2.17-3.759-6.276-13.774,2.452-25.556c1.845-2.491,4.303-5.17,7.736-8.43c5.309-5.041,13.053-11.557,23.677-19.919
				c18.633-14.668,45.77-34.738,82.959-61.356c68.604-49.103,161.001-112.992,250.356-174.777
				c9.042-6.253,18.022-12.461,26.933-18.624c-30.135,18.381-61.273,37.422-92.977,56.808
				c-106.225,64.954-216.067,132.121-300.372,181.799c-45.641,26.894-80.074,46.484-105.266,59.887
				c-41.905,22.296-52.745,24.858-62.499,22.374c-5.819-1.48-10.646-5.107-13.592-10.209c-1.677-2.905-6.468-13.308,2.263-25.26
				c1.772-2.425,4.12-5.007,7.392-8.126c4.977-4.745,12.233-10.852,22.184-18.673c17.427-13.697,42.881-32.458,77.815-57.355
				c64.56-46.012,153.022-106.88,238.571-165.744c30.077-20.696,60.542-41.658,90.218-62.146
				c-49.47,30.279-101.842,62.607-153.284,94.359c-102.462,63.246-208.413,128.645-289.08,176.426
				c-43.633,25.846-76.627,44.635-100.866,57.444C662.202,915.104,648.664,920.048,639.492,920.049z M1857.656,809.55
				c0.004,0.005,0.006,0.009,0.01,0.014C1857.663,809.559,1857.658,809.554,1857.656,809.55z M1856.57,807.907
				c0.342,0.574,0.703,1.119,1.082,1.637C1857.269,809.021,1856.908,808.475,1856.57,807.907z M1856.548,807.871
				c0.006,0.009,0.012,0.019,0.018,0.029C1856.56,807.89,1856.554,807.88,1856.548,807.871z M1856.526,807.833
				c0.005,0.008,0.01,0.017,0.015,0.025C1856.535,807.849,1856.531,807.841,1856.526,807.833z M1856.503,807.794
				c0.005,0.007,0.009,0.015,0.014,0.023C1856.512,807.808,1856.507,807.801,1856.503,807.794z M1856.479,807.754
				c0.004,0.006,0.008,0.013,0.012,0.019C1856.488,807.767,1856.484,807.76,1856.479,807.754z M1856.456,807.714
				c0.004,0.005,0.007,0.01,0.009,0.016C1856.463,807.724,1856.46,807.72,1856.456,807.714z M370.011,440.333
				c0.005,0.008,0.01,0.017,0.014,0.024C370.02,440.349,370.016,440.341,370.011,440.333z M364.234,433.981
				c2.283,1.63,4.265,3.759,5.769,6.338C368.433,437.625,366.436,435.539,364.234,433.981z"/>
		</g>
		<g>
			<path style="fill:#5B6872;" d="M551.692,556.165c-1.604,0-3.202-0.235-4.936-0.68c-4.957-1.272-9.266-4.535-11.824-8.968
				c-6.602-11.435,0.61-21.51,5.875-28.867c3.376-4.716,8.298-11.192,15.049-19.797c12.335-15.726,28.721-35.957,46.068-57.375
				c4.891-6.04,10.246-12.651,15.754-19.472c-10.963,6.672-21.525,13.062-30.167,18.158c-22.038,12.995-27.573,15.978-36.395,13.727
				c-4.99-1.273-9.324-4.554-11.891-9.002c-5.966-10.332-0.486-19.986,3.917-27.744c2.833-4.99,6.961-11.779,12.619-20.753
				c10.264-16.277,23.938-37.162,37.162-57.36c0.803-1.226,1.614-2.465,2.433-3.716c-3.939,2.359-7.642,4.562-10.916,6.486
				c-15.291,8.984-20.447,12.01-28.887,9.835c-4.951-1.275-9.229-4.522-11.784-8.95c-5.252-9.102-2.13-20.738,6.972-25.989
				c1.259-0.726,2.566-1.292,3.897-1.705c5.849-3.045,25.586-14.964,40.252-23.82c11.297-6.823,22.98-13.877,31.918-19.12
				c16.541-9.702,21.537-12.63,30.08-10.43c4.95,1.274,9.238,4.526,11.794,8.952c5.848,10.128,0.639,19.115-3.164,25.677
				c-2.234,3.855-5.498,9.161-9.979,16.221c-8.17,12.874-19.152,29.646-30.778,47.403c-4.42,6.751-9.364,14.301-14.393,22.018
				c0.665-0.406,1.323-0.807,1.975-1.205c16.109-9.827,32.765-19.989,45.466-27.474c22.44-13.224,28.072-16.262,36.951-13.996
				c4.992,1.273,9.328,4.555,11.897,9.004c6.695,11.595-0.641,21.966-6.537,30.299c-3.877,5.481-9.519,12.952-17.249,22.841
				c-14.078,18.013-33.038,41.423-51.374,64.063c-1.773,2.187-3.571,4.409-5.391,6.657c8.548-5.152,16.672-10.012,23.741-14.16
				c24.207-14.205,29.642-17.133,38.549-14.847c4.978,1.277,9.303,4.555,11.865,8.994c5.254,9.101,2.134,20.738-6.967,25.991
				c-1.729,0.999-3.551,1.695-5.402,2.105c-9.143,4.47-43.211,25.13-66.176,39.056c-15.331,9.297-29.812,18.079-41.024,24.688
				C564.781,552.289,558.206,556.164,551.692,556.165z M667.335,470.15c0.82,1.411,1.771,2.644,2.811,3.71
				C669.083,472.766,668.135,471.527,667.335,470.15z M667.324,470.132c0.003,0.005,0.006,0.009,0.008,0.014
				C667.33,470.141,667.327,470.137,667.324,470.132z M667.314,470.114c0.002,0.003,0.004,0.007,0.006,0.01
				C667.318,470.121,667.316,470.117,667.314,470.114z M576.712,322.639c0.002,0.004,0.005,0.008,0.007,0.013
				C576.717,322.648,576.714,322.643,576.712,322.639z M570.857,316.378c2.33,1.562,4.35,3.666,5.852,6.256
				C575.135,319.918,573.102,317.865,570.857,316.378z"/>
		</g>
		<g>
			<path style="fill:#5B6872;" d="M877.407,552.853c-1.63,0-3.245-0.244-5.007-0.697c-4.956-1.275-9.264-4.543-11.818-8.966
				c-6.482-11.228,0.196-21.077,5.562-28.991c3.373-4.974,8.287-11.774,15.023-20.786c12.275-16.423,29.029-38.083,45.233-59.029
				c3.001-3.878,6.139-7.936,9.344-12.083c-11.675,7.065-23.027,13.904-32.129,19.258c-20.467,12.038-26.642,15.672-35.57,13.38
				c-4.964-1.274-9.278-4.544-11.834-8.974c-5.957-10.317-0.458-19.878,3.558-26.859c2.579-4.484,6.348-10.593,11.525-18.675
				c9.4-14.677,22.307-34.083,34.789-52.851c2.73-4.105,5.609-8.434,8.542-12.852c-3.216,1.929-6.267,3.745-9.06,5.387
				c-15.757,9.265-21.653,12.731-30.353,10.508c-4.966-1.27-9.282-4.539-11.841-8.969c-5.257-9.099-2.142-20.737,6.957-25.993
				c1.483-0.857,3.033-1.491,4.612-1.913c6.587-3.371,28.243-16.539,42.904-25.452c11.014-6.697,21.418-13.023,29.6-17.845
				c14.675-8.649,20.169-11.883,28.702-9.702c4.961,1.269,9.265,4.526,11.825,8.961c5.963,10.329,0.447,19.925-3.581,26.932
				c-2.599,4.523-6.398,10.681-11.615,18.828c-9.471,14.791-22.452,34.309-35.005,53.185c-2.817,4.235-5.792,8.708-8.821,13.273
				c15.483-9.383,31.342-18.986,43.518-26.14c21.738-12.772,27.583-16.204,36.604-13.89c4.968,1.275,9.284,4.547,11.843,8.978
				c6.467,11.199-0.14,20.922-5.45,28.735c-3.287,4.837-8.076,11.456-14.644,20.237c-11.975,16.01-28.417,37.266-44.319,57.822
				c-3.504,4.53-7.193,9.298-10.955,14.17c11.558-6.975,22.764-13.707,31.822-19.026c21.888-12.853,27.09-15.905,35.988-13.618
				c4.956,1.275,9.264,4.543,11.818,8.966c5.256,9.1,2.139,20.737-6.961,25.992c-1.529,0.883-3.129,1.529-4.759,1.951
				c-8.115,4.058-38.302,22.303-60.672,35.823c-15.744,9.515-32.023,19.354-44.344,26.589
				C890.85,548.842,884.018,552.853,877.407,552.853z M992.251,467.244c1.128,1.939,2.496,3.541,4.009,4.838
				C994.705,470.738,993.342,469.119,992.251,467.244z M992.242,467.226c0.003,0.006,0.006,0.011,0.009,0.016
				C992.247,467.237,992.244,467.232,992.242,467.226z M992.231,467.209c0.001,0.003,0.003,0.006,0.005,0.009
				C992.234,467.214,992.233,467.212,992.231,467.209z M896.304,322.589c0.003,0.004,0.004,0.007,0.006,0.011
				C896.309,322.596,896.306,322.592,896.304,322.589z M891.297,316.934c1.971,1.484,3.686,3.379,5.003,5.647
				C894.928,320.218,893.204,318.357,891.297,316.934z"/>
		</g>
		<g>
			<path style="fill:#5B6872;" d="M1188.762,557.356c-1.602,0-3.189-0.23-4.893-0.667c-4.968-1.273-9.284-4.544-11.843-8.976
				c-6.601-11.43,0.535-21.607,5.746-29.037c3.41-4.863,8.385-11.502,15.211-20.298c12.443-16.034,29.639-37.415,46.268-58.093
				c4.317-5.368,8.891-11.055,13.547-16.857c-11.629,7.02-22.417,13.505-31.361,18.762c-21.397,12.578-26.483,15.571-35.32,13.293
				c-4.953-1.274-9.258-4.538-11.814-8.966c-5.898-10.215-0.514-19.224,3.418-25.802c2.279-3.815,5.606-9.093,10.17-16.135
				c8.346-12.877,19.595-29.756,31.504-47.625c4.769-7.156,10.114-15.176,15.542-23.358c-3.857,2.324-7.441,4.469-10.621,6.346
				c-13.726,8.102-18.865,11.133-27.247,8.984c-4.958-1.27-9.244-4.517-11.804-8.95c-5.254-9.101-2.135-20.738,6.966-25.991
				c1.214-0.701,2.474-1.253,3.758-1.662c5.357-2.829,22.807-13.423,35.79-21.305c11.617-7.053,23.63-14.346,33.062-19.88
				c16.318-9.575,22.426-13.157,31.177-10.916c4.966,1.271,9.281,4.541,11.84,8.97c6.031,10.446,0.514,19.879-4.354,28.202
				c-2.999,5.128-7.359,12.129-13.33,21.403c-10.848,16.847-25.217,38.409-39.114,59.261c-0.721,1.081-1.448,2.173-2.181,3.273
				c15.212-9.195,30.607-18.486,42.594-25.519c22.846-13.405,28.273-16.589,37.29-14.272c4.962,1.276,9.273,4.547,11.829,8.974
				c6.655,11.524-0.414,21.678-6.096,29.838c-3.683,5.29-9.052,12.483-16.414,21.99c-13.397,17.3-31.586,39.918-49.177,61.79
				c-2.446,3.041-4.982,6.194-7.568,9.412c13.107-7.942,25.821-15.602,36.366-21.793c8.139-4.779,14.309-8.288,18.864-10.726
				c7.089-3.795,13.784-7.38,21.93-5.294c4.987,1.277,9.32,4.558,11.887,9.003c5.256,9.1,2.139,20.737-6.961,25.993
				c-1.822,1.052-3.745,1.769-5.7,2.169c-9.741,4.694-45.819,26.602-72.545,42.831c-16.908,10.268-32.878,19.966-45.266,27.271
				C1202.624,553.195,1195.567,557.356,1188.762,557.356z M1317.473,463.839c0.655,1.123,1.393,2.133,2.194,3.036
				C1318.851,465.954,1318.116,464.941,1317.473,463.839z M1317.463,463.822c0.004,0.005,0.006,0.011,0.009,0.016
				C1317.469,463.833,1317.466,463.827,1317.463,463.822z M1317.452,463.805c0.003,0.004,0.005,0.008,0.007,0.012
				C1317.457,463.813,1317.455,463.809,1317.452,463.805z M1317.442,463.786c0.002,0.003,0.003,0.006,0.005,0.009
				C1317.445,463.792,1317.444,463.789,1317.442,463.786z M1218.204,320.916c0.003,0.006,0.007,0.011,0.009,0.017
				C1218.209,320.927,1218.207,320.922,1218.204,320.916z M1211.69,314.239c2.61,1.596,4.871,3.846,6.513,6.677
				C1216.473,317.932,1214.195,315.749,1211.69,314.239z"/>
		</g>
		<g>
			<path style="fill:#5B6872;" d="M1509.542,556.897c-1.625,0-3.227-0.25-4.987-0.706c-4.942-1.278-9.227-4.531-11.78-8.951
				c-3.887-6.732-3.427-14.176,1.369-22.123c1.171-1.94,2.824-4.4,5.056-7.518c3.678-5.141,9.021-12.215,16.337-21.627
				c13.373-17.206,31.553-39.922,49.134-61.89c3.144-3.929,6.432-8.036,9.786-12.232c-11.964,7.243-23.073,13.947-31.969,19.194
				c-19.337,11.405-24.534,14.472-33.222,12.239c-4.956-1.272-9.252-4.528-11.81-8.958c-5.912-10.239-0.644-19.594,3.589-27.111
				c2.643-4.694,6.502-11.088,11.796-19.547c9.61-15.354,22.616-35.372,35.195-54.731c1.737-2.675,3.542-5.451,5.381-8.285
				c-3.948,2.373-7.684,4.602-11.054,6.583c-15.97,9.389-21.943,12.905-30.67,10.672c-4.968-1.27-9.285-4.541-11.844-8.973
				c-5.256-9.1-2.138-20.737,6.962-25.992c1.497-0.865,3.061-1.502,4.656-1.924c6.694-3.418,28.804-16.862,43.767-25.961
				c11.164-6.789,21.71-13.201,29.996-18.086c14.797-8.722,20.331-11.987,28.884-9.801c4.961,1.269,9.265,4.526,11.826,8.96
				c5.854,10.143,0.596,19.383-3.242,26.13c-2.364,4.155-5.818,9.845-10.56,17.398c-8.628,13.742-20.075,31.36-32.195,50.013
				c-3.517,5.415-7.278,11.202-11.088,17.083c15.395-9.323,30.843-18.653,43.273-25.939c24.976-14.642,30.578-17.659,39.532-15.361
				c4.977,1.277,9.301,4.555,11.863,8.992c6.578,11.392-0.501,21.252-6.188,29.175c-3.508,4.887-8.61,11.628-15.597,20.609
				c-12.788,16.437-30.363,38.396-47.358,59.631c-4.009,5.009-8.242,10.299-12.553,15.693c12.407-7.446,24.446-14.644,34.144-20.325
				c23.5-13.767,28.389-16.634,37.212-14.352c4.942,1.277,9.228,4.531,11.781,8.951c5.255,9.101,2.137,20.737-6.963,25.992
				c-1.445,0.834-2.955,1.458-4.492,1.879c-8.271,4.141-40.883,23.74-65.025,38.248c-16.659,10.012-33.885,20.363-46.865,27.969
				C1522.904,552.88,1516.048,556.897,1509.542,556.897z M1643.638,475.741c2.651,0.783,5.509,0.984,8.375,0.304
				C1649.205,476.574,1646.343,476.453,1643.638,475.741z M1532.784,323.873c0.003,0.004,0.005,0.008,0.007,0.012
				C1532.789,323.88,1532.787,323.877,1532.784,323.873z M1527.882,318.297c1.929,1.473,3.606,3.341,4.899,5.57
				C1531.434,321.546,1529.749,319.71,1527.882,318.297z"/>
		</g>
		<g>
			<path style="fill:#171B1E;" d="M1899.697,1708.316c0-65.651,0-131.302,0-196.953c0-79.743,0-159.487,0-239.23
				c0-73.074,0-146.148,0-219.222c0-45.728,0-91.455,0-137.183c0-6.336,0-12.672,0-19.008c0-41.418,0-82.836,0-124.254
				c0-65.716,0-131.432,0-197.148c0-15.136,0-30.272,0-45.408c-0.538-67.739-48.725-122.003-112.62-139.576
				c-20.142-5.539-40.768-6.407-61.467-6.407c-23.659,0-47.317,0-70.976,0c0-30.215,0-60.43,0-90.645
				c0-6.146,0.174-12.233-1.244-18.28c-5.661-24.128-25.577-40.112-49.207-45.656c-29.707-6.97-65.396-2.471-86.95,20.809
				c-9.303,10.047-13.886,23.567-13.919,37.152c-0.08,32.206-0.047,64.414-0.021,96.62c-36.65,0-73.3,0-109.951,0
				c-19.358,0-38.717,0-58.075,0c0-30.215,0-60.43,0-90.645c0-6.146,0.174-12.233-1.245-18.28
				c-5.664-24.141-25.667-39.734-49.207-45.257c-29.517-6.925-65.423-2.518-86.95,20.533c-9.305,9.964-13.886,23.52-13.919,37.029
				c-0.08,32.206-0.047,64.414-0.021,96.62c-17.732,0-35.464,0-53.196,0c-38.277,0-76.553,0-114.83,0c0-30.215,0-60.43,0-90.645
				c0-6.187,0.064-12.159-1.244-18.28c-5.286-24.732-24.918-43.019-49.207-49.365c-28.795-7.523-64.139-2.84-84.949,20.372
				c-10.367,11.563-15.882,25.765-15.921,41.298c-0.08,32.206-0.047,64.414-0.021,96.62c-0.488,0-0.977,0-1.465,0
				c-55.52,0-111.04,0-166.56,0c0-30.215,0-60.43,0-90.645c0-6.146,0.174-12.233-1.244-18.28
				c-5.662-24.131-25.619-39.947-49.207-45.481c-29.622-6.95-65.408-2.493-86.95,20.687c-9.304,10.011-13.886,23.546-13.919,37.098
				c-0.08,32.206-0.047,64.414-0.021,96.62c-18.189,0-36.377,0-54.566,0c-8.941,0-17.882-0.024-26.822,0
				c-53.775,0.146-107.512,21.281-138.857,66.575c-16.043,23.182-24.599,51.414-24.784,79.545c-0.041,6.232,0,12.465,0,18.697
				c0,33.921,0,67.842,0,101.763c0,77.177,0,154.354,0,231.53c0,4.894,0,9.789,0,14.683c0,25.435,0,50.87,0,76.305
				c0,62.574,0,125.147,0,187.721c0,78.861,0,157.722,0,236.582c0,75.108,0,150.216,0,225.324c0,50.523,0,101.046,0,151.569
				c0,9.576-0.025,19.151,0,28.727c0.116,44.194,20.407,86.673,55.264,114.044c31.414,24.667,70.285,35.739,109.895,35.782
				c8.6,0.01,17.2,0,25.8,0c41.336,0,82.671,0,124.007,0c64.71,0,129.42,0,194.131,0c77.385,0,154.77,0,232.156,0
				c80.136,0,160.273,0,240.409,0c72.212,0,144.424,0,216.637,0c53.713,0,107.426,0,161.139,0c25.116,0,50.233,0.041,75.349,0
				c41.321-0.067,82.496-12.385,114.162-39.633c32.181-27.692,50.494-68.159,50.586-110.523
				C1899.766,1771.185,1899.697,1739.75,1899.697,1708.316z M1579.116,539.762c-0.028-0.017-0.055-0.034-0.087-0.053
				c0.232-0.113,0.504-0.245,0.759-0.371C1579.538,539.508,1579.311,539.651,1579.116,539.762z M1579.072,539.789
				c-0.044,0.025-0.08,0.04-0.12,0.061c-0.04-0.015-0.077-0.031-0.116-0.046c0.043-0.021,0.092-0.045,0.14-0.068
				C1579.007,539.753,1579.043,539.773,1579.072,539.789z M1578.67,539.737c-0.798-0.327-1.384-0.659-1.401-0.967
				c0.681,0.388,1.193,0.678,1.572,0.891C1578.784,539.686,1578.728,539.712,1578.67,539.737z M1577.283,540.356
				c-0.015,0.007-0.031,0.014-0.046,0.021c-0.209,0.044-0.439,0.107-0.672,0.176C1576.808,540.47,1577.052,540.401,1577.283,540.356
				z M1581.965,540.642c-0.286-0.033-0.635-0.065-0.981-0.091c-0.081-0.026-0.164-0.053-0.246-0.08
				c1.979-0.037,2.892,0.141,3.016,0.282C1583.126,540.707,1582.526,540.669,1581.965,540.642z M1595.85,518.156
				c-1.364,3.742-3.087,7.315-5.325,10.628c-1.216,1.8-2.594,3.43-3.977,5.097c-0.069,0.083-0.118,0.146-0.174,0.215
				c-0.041,0.023-0.075,0.04-0.127,0.072c-0.85,0.524-1.673,1.49-2.447,2.111c-0.364,0.292-2.221,1.801-3.644,2.805
				c-0.164,0.069-0.364,0.155-0.642,0.276c-0.203,0.089-0.406,0.183-0.61,0.272c-0.553-0.335-1.098-0.684-1.632-1.049
				c-0.895-0.604-1.764-1.243-2.616-1.906c-0.851-0.663-1.636-1.404-2.481-2.071c-0.14-0.11-0.259-0.202-0.361-0.279
				c-1.295-1.708-2.788-3.241-4.021-5.011c-2.377-3.411-4.218-7.101-5.65-10.986c-2.56-9.88-1.748-20.501-1.748-30.622
				c0-18.058,0-36.116,0-54.173c0-8.647,0-17.294,0-25.941c12.386,0,24.772,0,37.158,0c0,24.971,0,49.943,0,74.914
				C1597.553,494.053,1598.762,506.812,1595.85,518.156z M1580.056,251.397c0.186-0.08,0.371-0.16,0.559-0.237
				C1580.903,251.286,1580.779,251.413,1580.056,251.397z M1576.503,250.86c0.057,0.022,0.113,0.045,0.171,0.067
				c-0.356-0.071-0.738-0.151-1.149-0.241C1575.744,250.735,1576.109,250.798,1576.503,250.86z M1578.723,251.8
				c0.035,0.021,0.072,0.045,0.108,0.068c-0.495,0.267-0.879,0.474-1.154,0.625C1578.068,252.214,1578.426,251.975,1578.723,251.8z
				 M1579.019,251.638c0.01-0.005,0.02-0.01,0.03-0.015c0.031,0.025,0.061,0.05,0.094,0.077c-0.011,0.006-0.022,0.012-0.034,0.018
				C1579.078,251.69,1579.046,251.661,1579.019,251.638z M1582.423,250.686c-0.003,0.002-0.027,0.004-0.059,0.007
				C1582.384,250.691,1582.404,250.688,1582.423,250.686z M1562.097,273.349c1.364-3.742,3.089-7.318,5.326-10.629
				c1.212-1.794,2.572-3.454,3.977-5.097c0.103-0.121,0.175-0.209,0.256-0.306c0.142-0.111,0.31-0.246,0.52-0.419
				c0.664-0.549,1.299-1.133,1.971-1.673c0.291-0.234,1.962-1.601,3.36-2.61c0.098-0.05,0.205-0.104,0.345-0.176
				c0.351-0.182,0.71-0.347,1.067-0.517c1.032,0.661,2.453,1.771,0.663,0.209c-0.155-0.135-0.281-0.246-0.39-0.341
				c0.013-0.006,0.026-0.013,0.039-0.019c0.501,0.409,1.224,1.001,1.444,1.15c0.894,0.604,1.764,1.243,2.616,1.906
				c0.851,0.663,1.636,1.404,2.481,2.071c0.141,0.111,0.26,0.203,0.364,0.281c1.332,1.693,2.782,3.231,4.019,5.009
				c2.375,3.413,4.218,7.101,5.65,10.987c2.56,9.879,1.748,20.5,1.748,30.622c0,18.058,0,36.116,0,54.174c0,8.652,0,17.305,0,25.957
				c-12.386,0-24.772,0-37.158,0c0-24.977,0-49.954,0-74.931C1560.395,297.452,1559.185,284.693,1562.097,273.349z
				 M1261.682,541.009c-0.112-0.027-0.226-0.053-0.315-0.075c0.055,0,0.1,0.001,0.153,0.001c0.115,0.027,0.238,0.058,0.367,0.091
				C1261.819,541.02,1261.751,541.015,1261.682,541.009z M1261.109,540.871c-0.424-0.107-0.352-0.104-0.038-0.037
				c0.053,0.016,0.093,0.025,0.119,0.026c0.006,0.001,0.011,0.002,0.017,0.004C1261.179,540.872,1261.142,540.869,1261.109,540.871z
				 M1259.813,539.936c0.198-0.128,0.333-0.225,0.334-0.249C1260.145,539.744,1260.014,539.832,1259.813,539.936z M1262.668,541.102
				c-0.138-0.054-0.282-0.107-0.427-0.16c1.542,0.032,2.193,0.167,2.241,0.267C1263.843,541.164,1263.236,541.129,1262.668,541.102z
				 M1276.343,518.655c-1.343,3.605-3.022,7.051-5.185,10.253c-1.219,1.804-2.638,3.394-3.977,5.097
				c-0.129,0.163-0.227,0.293-0.31,0.405c-0.84,0.656-1.604,1.434-2.437,2.102c-1.577,1.266-3.254,2.353-4.942,3.453
				c-0.468-0.158-0.409-0.082-0.125,0.081c-0.008,0.005-0.016,0.01-0.024,0.015c-1.57-1.042-3.54-2.752-4.054-3.152
				c-0.852-0.664-1.653-1.378-2.481-2.071c-0.096-0.08-0.172-0.141-0.249-0.203c-0.026-0.047-0.05-0.093-0.089-0.156
				c-1.091-1.775-2.836-3.307-4.045-5.041c-2.292-3.288-4.088-6.833-5.496-10.564c-2.736-10.034-1.902-20.858-1.902-31.167
				c0-18.058,0-36.116,0-54.173c0-8.647,0-17.294,0-25.941c12.386,0,24.772,0,37.158,0c0,24.971,0,49.943,0,74.914
				C1278.186,494.223,1279.422,507.186,1276.343,518.655z M1261.025,250.943c0.11-0.045,0.219-0.088,0.329-0.134
				C1261.372,250.871,1261.272,250.921,1261.025,250.943z M1256.562,250.32c0.01,0.005,0.019,0.01,0.03,0.015
				c-0.147-0.032-0.279-0.058-0.435-0.093C1256.261,250.265,1256.404,250.292,1256.562,250.32z M1263.056,250.241
				c-0.004,0.002-0.027,0.004-0.06,0.007C1263.016,250.246,1263.036,250.243,1263.056,250.241z M1242.871,272.85
				c1.343-3.604,3.023-7.052,5.185-10.252c1.214-1.797,2.598-3.43,3.977-5.097c0.193-0.234,0.333-0.41,0.449-0.56
				c0.102-0.085,0.198-0.165,0.326-0.275c0.654-0.562,1.299-1.133,1.971-1.673c1.518-1.218,3.127-2.271,4.751-3.329
				c1.446,0.989,3.005,1.85,4.393,2.931c0.852,0.664,1.653,1.378,2.481,2.071c0.091,0.076,0.16,0.132,0.234,0.192
				c0.029,0.049,0.058,0.1,0.104,0.168c1.162,1.761,2.826,3.288,4.045,5.041c2.289,3.29,4.088,6.834,5.497,10.566
				c2.735,10.033,1.901,20.857,1.901,31.165c0,18.058,0,36.116,0,54.174c0,8.652,0,17.305,0,25.957c-12.386,0-24.772,0-37.158,0
				c0-24.977,0-49.954,0-74.931C1241.028,297.281,1239.791,284.318,1242.871,272.85z M953.16,265.71
				c-0.832-1.166-1.287-1.791-1.391-1.911C952.397,264.432,953.044,265.154,953.16,265.71z M937.934,255.328
				c0.153-0.007,0.323-0.015,0.502-0.023c-0.182,0.116,0.052,0.163,1.025,0.07c-0.03,0.021-0.067,0.042-0.1,0.063
				C938.278,255.438,937.884,255.382,937.934,255.328z M938.557,255.242c-0.157,0.012-0.295,0.022-0.42,0.032
				c0.107-0.015,0.253-0.027,0.428-0.035C938.562,255.24,938.559,255.241,938.557,255.242z M939.608,255.255
				C939.608,255.255,939.608,255.255,939.608,255.255c-0.045,0.038-0.087,0.077-0.141,0.115
				C939.517,255.332,939.564,255.294,939.608,255.255z M941.904,255.372c-0.044-0.02-0.107-0.044-0.178-0.07
				c0.433,0.023,0.866,0.039,1.283,0.018C942.611,255.341,942.248,255.358,941.904,255.372z M938.137,255.958
				c0.255-0.085,0.51-0.173,0.766-0.257C937.359,256.489,934.892,257.045,938.137,255.958z M928.505,264.075
				c-0.216,0.288-0.607,0.828-1.185,1.635C927.422,265.216,927.975,264.608,928.505,264.075z M922.455,277.313
				c1.147-3.941,2.722-7.72,4.84-11.261c0.227-0.368,0.455-0.737,0.682-1.105c0.359-0.533,0.568-0.852,0.661-1.004
				c0.285-0.282,0.553-0.54,0.725-0.737c1.538-1.763,3.248-3.284,4.94-4.885c0.652-0.428,1.294-0.876,1.962-1.275
				c0.672-0.402,1.914-0.878,2.779-1.393c0.216-0.071,0.43-0.145,0.646-0.217c-0.109,0.001-0.209,0.001-0.307,0.001
				c0.03-0.021,0.05-0.042,0.078-0.064c0.064-0.006,0.12-0.011,0.19-0.018c0.112-0.012,0.254-0.027,0.407-0.043
				c0.032-0.011,0.065-0.022,0.097-0.033c0.038,0.003,0.075,0.006,0.114,0.01c0.02-0.002,0.042-0.005,0.062-0.007
				c0.021,0.006,0.041,0.014,0.062,0.02c0.143,0.015,0.288,0.032,0.434,0.053c0.097,0.014,0.179,0.025,0.262,0.036
				c0.006,0.004,0.012,0.008,0.018,0.012c-0.127,0.004-0.245,0.008-0.364,0.011c0.247,0.076,0.495,0.152,0.739,0.236
				c0.7,0.392,1.521,0.695,2.167,1.07c0.831,0.482,1.627,1.014,2.44,1.522c1.56,1.48,3.159,2.87,4.6,4.477
				c0.232,0.259,0.636,0.636,1.051,1.053c-0.003,0.013,0.127,0.217,0.405,0.633c0.361,0.54,0.707,1.089,1.038,1.648
				c2.109,3.525,3.678,7.285,4.824,11.206c1.53,8.919,0.811,18.456,0.811,27.417c0,17.923,0,35.845,0,53.768
				c0,8.495,0,16.99,0,25.485c-12.386,0-24.772,0-37.158,0c0-24.653,0-49.306,0-73.958
				C921.661,299.399,920.615,287.872,922.455,277.313z M927.32,525.794c0.447,0.604,0.894,1.208,1.342,1.812
				C928.03,526.932,927.379,526.175,927.32,525.794z M937.644,536.158c-0.059,0.008-0.121,0.014-0.173,0.026
				C937.519,536.173,937.579,536.164,937.644,536.158z M938.952,536.256c0.049,0.016,0.103,0.032,0.159,0.049
				c-0.137,0.005-0.275,0.009-0.413,0.015C938.779,536.297,938.865,536.276,938.952,536.256z M942.236,536.047
				c0.497,0.039,0.535,0.115-0.404,0.168C941.961,536.164,942.097,536.107,942.236,536.047z M958.024,514.191
				c-1.147,3.941-2.722,7.72-4.84,11.261c-0.175,0.292-0.751,1.346-1.053,1.9c0.083-0.154,0.192-0.354,0.344-0.634
				c1.359-2.51-0.455,0.528-0.935,1.093c-1.411,1.662-2.963,3.141-4.542,4.629c0.148-0.041,0.302-0.081,0.468-0.115
				c-0.197,0.041-0.407,0.137-0.623,0.261c-0.098,0.092-0.195,0.184-0.293,0.277c-0.579,0.546-0.987,0.785-1.221,0.845
				c-0.202,0.16-0.394,0.305-0.564,0.41c-0.831,0.513-1.698,0.96-2.539,1.453c-0.343,0.118-0.686,0.237-1.028,0.358
				c0.214-0.045,0.405-0.075,0.563-0.084c-0.057,0.035-0.118,0.073-0.169,0.105c-0.162,0.022-0.349,0.049-0.554,0.08
				c0.154-0.004,0.302-0.007,0.442-0.007c-0.131,0.085-0.244,0.161-0.324,0.221c-0.232,0.007-0.501,0.013-0.799,0.018
				c-0.014-0.002-0.025-0.004-0.04-0.006c-0.014-0.002-0.025-0.004-0.038-0.006c-0.014,0.005-0.028,0.01-0.041,0.014
				c-0.079,0-0.167-0.004-0.256-0.008c0.038-0.012,0.075-0.023,0.113-0.035c-0.044-0.007-0.091-0.014-0.133-0.021
				c-0.03,0.005-0.06,0.01-0.089,0.015c-0.038-0.015-0.076-0.03-0.113-0.045c-0.059-0.009-0.123-0.018-0.177-0.026
				c0.028-0.004,0.054-0.008,0.082-0.012c-0.215-0.086-0.413-0.164-0.592-0.234c-0.717-0.413-1.574-0.725-2.245-1.114
				c-0.831-0.482-1.627-1.014-2.44-1.522c-1.56-1.48-3.16-2.871-4.6-4.478c-0.188-0.21-0.645-0.665-1.115-1.167
				c-0.479-0.71-0.939-1.431-1.378-2.166c-2.109-3.525-3.678-7.285-4.824-11.206c-1.53-8.919-0.811-18.456-0.811-27.417
				c0-17.922,0-35.845,0-53.768c0-8.489,0-16.979,0-25.468c12.386,0,24.772,0,37.158,0c0,24.647,0,49.294,0,73.942
				C958.819,492.106,959.864,503.633,958.024,514.191z M622.07,251.206c0.166-0.07,0.331-0.142,0.497-0.21
				C622.741,251.103,622.622,251.204,622.07,251.206z M618.151,250.624c0.038,0.015,0.077,0.03,0.115,0.045
				c-0.272-0.056-0.542-0.112-0.844-0.179C617.594,250.529,617.858,250.576,618.151,250.624z M620.693,251.659
				c0.039,0.018,0.078,0.037,0.117,0.055c-0.431,0.226-0.781,0.411-1.052,0.554C620.109,252.023,620.429,251.812,620.693,251.659z
				 M624.322,250.491c-0.004,0.002-0.027,0.004-0.06,0.007C624.283,250.496,624.302,250.492,624.322,250.491z M604.058,273.13
				c1.355-3.682,3.06-7.201,5.264-10.464c1.213-1.796,2.583-3.444,3.977-5.097c0.139-0.165,0.247-0.297,0.346-0.419
				c0.124-0.1,0.26-0.212,0.43-0.354c0.66-0.555,1.298-1.133,1.971-1.673c0.303-0.243,2.147-1.747,3.584-2.766
				c0.044-0.022,0.072-0.036,0.12-0.061c0.372-0.193,0.752-0.368,1.13-0.548c0.035,0.017,0.071,0.033,0.106,0.05
				c0.538,0.326,1.068,0.666,1.588,1.02c0.895,0.604,1.764,1.243,2.616,1.906c0.852,0.664,1.643,1.393,2.481,2.071
				c0.113,0.091,0.204,0.163,0.292,0.231c0.017,0.024,0.026,0.04,0.046,0.067c1.268,1.739,2.806,3.26,4.045,5.041
				c2.338,3.361,4.163,6.987,5.585,10.807c2.634,9.946,1.813,20.654,1.813,30.855c0,18.058,0,36.116,0,54.174
				c0,8.652,0,17.305,0,25.957c-1.517,0-3.034,0-4.55,0c-10.869,0-21.738,0-32.608,0c0-24.977,0-49.954,0-74.931
				C602.294,297.377,601.073,284.529,604.058,273.13z M619.169,538.913c0.696,0.388,1.215,0.674,1.595,0.881
				c-0.095,0.042-0.19,0.085-0.286,0.128C619.81,539.646,619.303,539.323,619.169,538.913z M622.742,540.74
				c-0.104-0.024-0.186-0.044-0.264-0.062c0.012,0,0.026-0.001,0.038-0.001c0.082,0.02,0.171,0.042,0.268,0.066
				C622.77,540.742,622.756,540.741,622.742,540.74z M621.012,539.862c-0.022-0.013-0.042-0.026-0.065-0.04
				c0.174-0.083,0.37-0.177,0.564-0.271C621.329,539.672,621.16,539.778,621.012,539.862z M620.954,539.897
				c-0.087,0.049-0.164,0.087-0.235,0.119c-0.034-0.013-0.069-0.025-0.103-0.038c0.074-0.034,0.162-0.076,0.261-0.122
				C620.902,539.869,620.931,539.885,620.954,539.897z M618.958,540.6c-0.118,0.028-0.237,0.058-0.361,0.093
				c0.134-0.042,0.267-0.078,0.398-0.109C618.983,540.589,618.971,540.594,618.958,540.6z M623.886,540.843
				c-0.195-0.022-0.421-0.045-0.657-0.065c-0.121-0.035-0.243-0.069-0.367-0.104c1.901-0.01,2.749,0.153,2.834,0.279
				C625.06,540.908,624.453,540.871,623.886,540.843z M637.688,518.375c-1.355,3.682-3.059,7.199-5.264,10.463
				c-1.218,1.803-2.612,3.414-3.977,5.097c-0.091,0.112-0.162,0.202-0.23,0.29c-0.025,0.017-0.042,0.026-0.071,0.045
				c-0.856,0.585-1.639,1.462-2.447,2.11c-0.375,0.301-2.36,1.908-3.801,2.908c-0.135,0.059-0.294,0.13-0.485,0.214
				c-0.189,0.084-0.38,0.171-0.571,0.255c-0.013-0.008-0.02-0.012-0.034-0.021c-0.555-0.336-1.101-0.686-1.637-1.052
				c-0.894-0.604-1.764-1.243-2.616-1.906c-0.852-0.664-1.643-1.393-2.481-2.071c-0.115-0.093-0.208-0.166-0.297-0.235
				c-0.015-0.023-0.023-0.037-0.041-0.063c-1.212-1.754-2.813-3.274-4.045-5.041c-2.341-3.359-4.163-6.986-5.585-10.806
				c-2.635-9.946-1.813-20.655-1.813-30.857c0-18.058,0-36.116,0-54.173c0-8.647,0-17.294,0-25.941c12.386,0,24.772,0,37.158,0
				c0,24.971,0,49.943,0,74.914C639.452,494.128,640.672,506.976,637.688,518.375z M357.244,530.327
				c0.148-25.121,6.788-49.034,20.489-70.167c7.757-11.965,17.246-22.465,28.581-31.094c2.685-2.044,5.448-3.987,8.279-5.824
				c3.498-2.268,6.305-3.904,7.865-4.701c3.034-1.55,6.14-2.966,9.287-4.269c1.265-0.523,2.539-1.028,3.819-1.512
				c1.202-0.455,2.412-0.889,3.628-1.309c0.123-0.037,0.248-0.075,0.385-0.116c3.362-0.915,6.723-1.708,10.108-2.526
				c0.269-0.065,0.498-0.122,0.709-0.175c0.228-0.026,0.475-0.056,0.767-0.092c1.405-0.176,2.804-0.38,4.211-0.537
				c0.548-0.061,2.001-0.241,3.1-0.388c1.452-0.043,2.918-0.014,4.349-0.023c0.03,0,0.059,0,0.089,0c0.61-0.004,1.22,0.001,1.831,0
				c3.378-0.006,6.756,0,10.134,0c23.444,0,46.887,0,70.331,0c0.003,5.615,0.008,11.23,0.008,16.846c0,22.885,0,45.77,0,68.655
				c0,4.182-0.051,8.367,0,12.549c0.269,21.992,13.536,39.654,32.449,49.697c12.422,6.596,27.039,9.263,41.053,9.509
				c0.837,0.027,1.567,0.033,2.158,0.024c1.637,0,3.347-0.055,5.084-0.18c25.329-1.42,52.927-10.925,64.768-35.069
				c4.378-8.926,5.809-18.338,5.809-28.102c0-19.412,0-38.823,0-58.235c0-11.898,0-23.796,0-35.694c35.498,0,70.995,0,106.493,0
				c20.515,0,41.03,0,61.546,0c0.003,5.615,0.008,11.23,0.008,16.846c0,22.885,0,45.77,0,68.655c0,4.182-0.051,8.367,0,12.549
				c0.272,22.229,13.229,42.09,32.449,52.877c12.473,7.001,26.805,10.501,41.072,10.819c0.741,0.03,1.458,0.041,2.139,0.031
				c0.843,0,1.705-0.024,2.58-0.071c27.049-1.084,54.826-13.104,67.271-38.48c4.488-9.152,5.809-19.244,5.809-29.298
				c0-19.412,0-38.823,0-58.235c0-11.898,0-23.796,0-35.694c15.167,0,30.334,0,45.5,0c40.846,0,81.692,0,122.538,0
				c0.003,5.615,0.008,11.23,0.008,16.846c0,22.885,0,45.77,0,68.655c0,4.182-0.051,8.367,0,12.549
				c0.244,20.007,11.743,38.119,29.131,47.748c13.549,7.503,28.745,10.882,44.172,11.192c0.925,0.031,1.73,0.04,2.358,0.031
				c1.682,0,3.441-0.059,5.226-0.187c25.251-1.429,52.814-10.788,64.625-34.871c4.372-8.914,5.809-18.284,5.809-28.033
				c0-19.412,0-38.823,0-58.235c0-11.898,0-23.796,0-35.694c56.013,0,112.026,0,168.038,0c0.003,5.615,0.008,11.23,0.008,16.846
				c0,22.885,0,45.77,0,68.655c0,4.182-0.051,8.367,0,12.549c0.269,22.016,13.533,39.735,32.449,49.84
				c12.417,6.633,27.082,9.326,41.108,9.568c0.808,0.026,1.521,0.032,2.103,0.024c1.548,0,3.164-0.054,4.804-0.167
				c25.438-1.38,53.158-10.987,65.048-35.23c4.382-8.935,5.809-18.38,5.809-28.156c0-19.412,0-38.823,0-58.235
				c0-11.898,0-23.796,0-35.694c16.114,0,32.228,0,48.343,0c10.403,0,20.806-0.01,31.209,0c0.822,0.001,1.644-0.005,2.466,0
				c0.118,0.001,0.236-0.001,0.353,0c0.727,0.005,0.474-0.011,2.178,0.017c0.402,0.007,0.887-0.029,1.382-0.084
				c-0.117,0.024-0.23,0.046-0.355,0.072c1.504-0.307,3.764,0.348,5.308,0.532c1.203,0.144,7.076,1.233,4.504,0.671
				c2.765,0.588,5.515,1.217,8.246,1.968c0.617,0.17,7.054,2.361,2.137,0.593c1.293,0.465,2.591,0.912,3.876,1.398
				c8.179,3.093,13.712,5.907,19.267,9.391c12.095,7.585,22.707,16.905,31.517,28.128c18.035,22.972,27.32,50.491,27.551,79.63
				c0,41.418,0,82.836,0,124.254c0,65.716,0,131.432,0,197.148c0,11.192,0,22.383,0,33.575c-4.332,0-8.665,0-12.997,0
				c-37.343,0-74.685,0-112.028,0c-55.364,0-110.728,0-166.092,0c-67.546,0-135.092,0-202.639,0c-73.724,0-147.448,0-221.172,0
				c-74.924,0-149.849,0-224.773,0c-69.384,0-138.767,0-208.151,0c-58.843,0-117.687,0-176.53,0c-42.306,0-84.612,0-126.918,0
				c-11.351,0-22.712-0.102-34.072-0.133c0-55.348,0-110.697,0-166.045C357.244,655.919,356.874,593.116,357.244,530.327z
				 M430.028,1917.134C429.37,1916.904,429.565,1916.97,430.028,1917.134L430.028,1917.134z M456.322,1923.498
				c1.021,0.077,2.042,0.153,3.063,0.229C458.296,1923.771,457.191,1923.767,456.322,1923.498z M1753.819,1921.998
				C1750.766,1922.781,1752.43,1922.333,1753.819,1921.998L1753.819,1921.998z M1842.616,1157.216c0,78.503,0,157.006,0,235.509
				c0,74.74,0,149.48,0,224.22c0,51.198,0,102.397,0,153.595c0,10.517,0.017,21.034,0,31.551
				c-0.061,37.415-15.218,72.626-42.793,96.354c-2.554,2.198-5.191,4.3-7.903,6.301c-0.991,0.73-1.996,1.441-3.004,2.147
				c-0.371,0.255-0.759,0.518-0.905,0.608c-6.146,3.776-12.646,6.49-18.966,9.875c-0.081,0.043-0.15,0.081-0.218,0.119
				c-0.211,0.068-0.438,0.142-0.701,0.229c-1.306,0.434-2.595,0.912-3.904,1.34c-3.229,1.055-6.494,1.929-9.781,2.776
				c-1.574,0.271-3.142,0.566-4.722,0.806c-1.748,0.265-3.5,0.501-5.258,0.696c-0.387,0.044-0.776,0.074-1.164,0.114
				c-1.2-0.115-7.642,0.199-9.451,0.199c-9.056,0-18.113,0-27.169,0c-41.532,0-83.065,0-124.597,0c-64.301,0-128.603,0-192.904,0
				c-77.178,0-154.356,0-231.534,0c-79.386,0-158.771,0-238.157,0c-71.883,0-143.766,0-215.649,0c-53.746,0-107.491,0-161.237,0
				c-25.707,0-51.414,0.024-77.121,0c-0.736-0.001-1.473,0.004-2.209,0c-0.137-0.001-0.274,0.001-0.411,0
				c-0.376-0.003-0.744-0.005-1.127-0.009c-0.688-0.007-1.495,0.049-2.311,0.082c-1.352-0.109-2.702-0.237-4.05-0.387
				c-3.158-0.355-6.268-0.983-9.414-1.395c-0.104-0.014-0.192-0.024-0.279-0.035c-0.026-0.007-0.047-0.012-0.074-0.019
				c-1.345-0.345-2.693-0.673-4.031-1.042c-3.329-0.916-6.595-1.998-9.855-3.128c-0.173-0.06-0.313-0.108-0.461-0.16
				c-2.035-0.865-4.056-1.754-6.052-2.709c-2.758-1.319-5.471-2.729-8.132-4.234c-1.474-0.834-2.921-1.711-4.37-2.587
				c-0.397-0.24-1.662-1.098-2.242-1.487c-5.246-3.714-10.252-7.746-14.933-12.156c-24.892-23.449-38.243-57.515-38.285-92.818
				c-0.039-32.756,0-65.513,0-98.269c0-65.92,0-131.84,0-197.76c0-79.07,0-158.139,0-237.209c0-72.405,0-144.81,0-217.215
				c0-45.211,0-90.421,0-135.632c0-2.311,0-4.622,0-6.933c4.332,0,8.665,0,12.997,0c37.343,0,74.685,0,112.028,0
				c55.364,0,110.728,0,166.092,0c67.546,0,135.092,0,202.639,0c73.724,0,147.448,0,221.172,0c74.924,0,149.849,0,224.773,0
				c69.384,0,138.767,0,208.151,0c58.844,0,117.687,0,176.531,0c42.306,0,84.612,0,126.918,0c11.357,0,22.714,0.034,34.072,0.045
				c0,21.175,0,42.351,0,63.526C1842.616,1033.822,1842.616,1095.519,1842.616,1157.216z"/>
			<path style="fill:#171B1E;" d="M940.394,255.303c-0.041-0.004-0.083-0.009-0.124-0.013c-0.074,0.008-0.142,0.015-0.211,0.023
				c-0.123,0.041-0.245,0.083-0.368,0.124c0.304-0.003,0.658-0.01,1.054-0.022C940.627,255.378,940.511,255.338,940.394,255.303z"/>
			<path style="fill:#171B1E;" d="M939.665,536.132c0.031,0.012,0.064,0.025,0.095,0.038c0.066,0.01,0.13,0.019,0.202,0.03
				c0.151-0.025,0.303-0.049,0.453-0.074c-0.106,0.03-0.213,0.062-0.32,0.094c0.061,0.01,0.12,0.018,0.185,0.029
				c0.177-0.062,0.355-0.123,0.533-0.186c0.078-0.012,0.152-0.023,0.226-0.034c-0.047,0.001-0.094,0.003-0.142,0.005
				c0.1-0.036,0.201-0.07,0.302-0.105c-0.149,0.031-0.307,0.069-0.472,0.112C940.379,536.058,940.014,536.087,939.665,536.132z"/>
			<path style="fill:#171B1E;" d="M945.33,533.708c0.472-0.373,1.008-0.831,1.514-1.122c0.052-0.049,0.103-0.097,0.155-0.146
				C945.248,532.931,944.774,533.849,945.33,533.708z"/>
		</g>
	</g>
</g>
</svg>
